# xmcd
#
# Track frame offsets:
#	150
#	13882
#	25187
#	36452
#	51130
#	63720
#	74932
#	85190
#	97291
#	109247
#	123468
#	136022
#	151447
#	162167
#	172545
#	186789
#	198573
#	211009
#	221892
#	234206
#	247046
#	258302
#	270936
#	282651
#
# Disc length: 3923 seconds
#
# Revision: 1
# Processed by: cddbd v1.5.2PL0 Copyright (c) Steve Scherf et al.
# Submitted via: audiograbber 1.83.01
#
DISCID=680f5118
DTITLE=Sugar Boy Crawford - Classics, 1953 - 1954
DYEAR=2005
DGENRE=R&B
TTITLE0=I Don't Know What I'll Do
TTITLE1=Overboard
TTITLE2=Jock-O-Mo
TTITLE3=You You You
TTITLE4=I Bowed On My Knees
TTITLE5=Wandering Baby
TTITLE6=No More Heartaches
TTITLE7=What's Wrong
TTITLE8=Please Believe Me
TTITLE9=Long Lost Stranger
TTITLE10=Night Rider
TTITLE11=For Me
TTITLE12=Wondering
TTITLE13=Honey
TTITLE14=Get Away (Away From My Door)
TTITLE15=You Know I Love You
TTITLE16=Stop
TTITLE17=Watch Her, Whip Her
TTITLE18=Love, Love, Love
TTITLE19=Troubled Mind Blues
TTITLE20=Oo Wee Sugar
TTITLE21=There Goes My Baby
TTITLE22=You Call Everybody Sweetheart
TTITLE23=If I Love You Darling
EXTD=
EXTT0=
EXTT1=
EXTT2=
EXTT3=
EXTT4=
EXTT5=
EXTT6=
EXTT7=
EXTT8=
EXTT9=
EXTT10=
EXTT11=
EXTT12=
EXTT13=
EXTT14=
EXTT15=
EXTT16=
EXTT17=
EXTT18=
EXTT19=
EXTT20=
EXTT21=
EXTT22=
EXTT23=
PLAYORDER=
